<svg width="40" height="40" viewBox="0 0 40 40" fill="none" xmlns="http://www.w3.org/2000/svg">
<path d="M10.2387 10.2379C9.92156 10.555 9.92156 11.0692 10.2387 11.3863L18.8519 19.9996L10.2379 28.6137C9.92071 28.9308 9.92071 29.445 10.2379 29.7621C10.555 30.0793 11.0692 30.0793 11.3863 29.7621L20.0004 21.1481L28.6145 29.7621C28.9316 30.0792 29.4458 30.0792 29.7629 29.7621C30.0801 29.4449 30.0801 28.9307 29.7629 28.6136L21.1489 19.9996L29.7621 11.3864C30.0792 11.0692 30.0792 10.5551 29.7621 10.2379C29.4449 9.92076 28.9308 9.92076 28.6136 10.2379L20.0004 18.8511L11.3872 10.2379C11.07 9.92071 10.5558 9.92071 10.2387 10.2379Z" fill="#21252C" stroke="#21252C"/>
</svg>
